<svg xmlns="http://www.w3.org/2000/svg" xmlns:xlink="http://www.w3.org/1999/xlink" version="1.1" x="0px" y="0px" viewBox="0 0 800 800" style="enable-background:new 0 0 800 800;" xml:space="preserve">
<style>
.st23{fill:#08183b;}
</style>
<path xmlns="http://www.w3.org/2000/svg" class="st23" d="M16,781.7v-66l18.1,0l0.8-1.9c1.9-4.7,3.4-8.8,7.7-13.2c0.3-0.3-0.3-1.4,0-1.7c1-0.8,5.9-2.8,5.1-6.2     c-0.1-0.5-6,0-6.5,0c1.4-2.2,2.5-3.4,3.8-6.8c0.6-1.6-0.2-3.3,0.7-4.5c0.3-0.4,4.9-0.4,2.7-3.9c-0.1-0.2-0.2-0.2-0.4-0.2l-0.1,0     v0c0,0.1,0,0.2,0,0.3c-0.3,1.2-0.3,2.5-1.9,2.5c-2.6,0-4-0.6-6-1.3c0.8,1.4,1.1,4.4-0.2,5.7c-1.2,1.2-2.7-0.4-3.1,0.9     c-0.4,1-1.1,2.6-2.7,1.7c-2.8-1.7-2.5-3.5,0.2-6.4c0.5-0.5,1.9,0.2,1.9-0.2c0-1.6-0.1-2.6,1-4c0.7-0.9,2.7-1.9,2.4-3     c-0.3-1.1,0.1-2,1.1-2.6l0.4-0.2l0.1-0.3c1.4-2.9,5.4-4,6.7-7.4l0-0.1l-0.6,0.2c-0.8,0.3-1.4,0.8-1.5,1.4c-0.2,2-2.6,2.8-3.5,0.9     c-0.6,1.1-0.8,2.1-2.5,2.2c-0.4,0-3.6-0.4-3.3-0.9c1-1.7,3.3-2.6,5.5-3.1c0.4-0.1,0.2-2.3,1.5-2.6c0.6-0.2,2.4,0.4,2.5,0     c0.4-1.6,1.1-2.3,2.5-2.6h0l0-0.1c0.1-0.3,0.2-0.6,0.3-0.8c1.4-1.7,3.1,0,3.8-2.8c0.1-0.5,0.3-1.1,0.4-1.7l0.1-0.4l-1.6,0.6     c-0.9,0.3-5.1,4.6-3.2,0.1c0.1-0.2,0.2-0.3,0.3-0.4c0.6-1.1,1.9-0.8,2.3-1.5c0.3-0.5,1-1.3,1.7-2l1.1-0.8l0-0.6     c0-2-0.7-3.5-2.9-3.5c-3.8,0,0.1,5.9-3.5,5.1l-0.1,0l-0.1,0.8c-0.2,0.3-0.4,0.6-0.8,0.6c-1.3,0.1-1.8-0.6-2.7-1.2     c0.6,1.1,1.2,1.9,1,3.4c-0.2,1.3-2.1-0.6-2.3,0c-0.8,2.2,2.8,4.4-1.5,4.4c-1.1,0-0.8-2-0.8-2.8c0-1.1-1.2-0.9-1.8-1.3     c-1.3-0.8-0.2-5.3,1.2-5.8h1c0.7-0.4-0.6-4.4,1.2-5.1l0.2,0l0.2-0.2c0.8-0.8,2-1.8,3.3-2.7l1.4-1.1l-1.1,0.3     c-2,0.6-3.9,1.1-6.1,2c-1.5,0.6-0.4-1.6-0.3-1.9c0.8-2.1,4.4,0,5.3-1.3c1-1.5,2.6-1.5,4.7-1.8c0.4-0.1,0.8-0.2,1.3-0.3l0.2-0.1     l0.1,0c1.5-1.4,2.3-2.7,3.1-4.3c0.5-1,0.3-2-0.2-3l-0.1-0.2l-0.2,0.3c-0.7,0.6-2.9-0.5-3.3-0.9c-0.9-0.6-0.8,9.2-4.5,2.8     c-0.3,0.5-3.7,6.7-3.7,2.3c0-1-0.3-2.5,0.5-3.1c0.8-0.5,2.6-0.5,3.2-1.3c1-1.5,0.5-2.7,2.3-3.6c0.7-0.3,0.8,0.3,1.3,0.1     c0.8-0.2,0.7-1.2,1.1-1.7l0,0l0-0.2c-0.1-0.7,0.3-1.3,1.5-1.7c2.3-0.7,2.9-1.6,3-2.5l0-0.3l-0.1,0c-0.3,0-0.6,0.1-1,0.2     c-0.4,0.1-2.5,1.1-2.7,0.9c-0.9-1.1,1.1-1.1,1.3-1.3c0.6-0.5,1.2-2.1,2-3.3l0.5-0.6c-0.5-0.5-0.9-1-1.1-1.6l-0.1-0.6l-0.7,0.1     c-0.5,0.2,0.1,1-0.3,1.3c-0.2,0.2-1.8-0.1-2.2,0c-1.2,0.4,1.5,4.3-1.3,4.5c-1.1,0.1-4.5-0.9-4.8,0.3c-0.2,0.6-0.1,2.9-1.2,2.9     c-3.1,0,0.6-2.8-0.2-3.2c-0.5-0.3-1.9-0.4-2-0.9c-0.5-3.1,4.5-2.7,4.7-3.2c0.2-0.6,1.4-1.6,2.2-1.5c0.5,0.1,0.6-2.2,1.8-2.6     c0.6-0.2,1.2,0.4,1.7,0.4c0.6,0.1,1.2-0.2,1.8-0.5l0.6-0.1l0.2-0.9c0.2-0.8,0.4-1.6,0.6-2.2c-2.2,0.5-2.9-1.3-2.7-3.5l0-0.2     l-0.1,0c-0.1,0.1-0.2,0.2-0.2,0.5c0,0.5,0.2,1.5-0.3,1.7c-0.7,0.3-2-0.5-1.7,0.1c0.2,0.4,0.3,1.7-0.5,1.6     c-0.6-0.1-1.4-1.2-1.8-1.2c-1.6,0.3-0.6,1.9-1.2,2.2h-1.5c-0.3,0.1-1.6,1.2-1.8,1.5c0.5-0.4,0.4-1.8,0.7-2.5     c0.8-2.2,3.1-4.2,5.7-4.2c-1.2-1,1.8-3.8,3.2-3.5l0.8,0.2l0.1-0.2c0.7-1.3,2.3-0.5,2.9-1.5c1.4-2.3,0.8-12.7,2.2-15.4     c0.6-1.1,1.5,8.4,1,11c-0.5,2.2,2,2.9,2,6.6c0,2.9,0,4.2,0.1,5.3l0,0.1l1.4,0.2c1.4,0.2,2.1,1.5,2.8,1.5c1.2,0,3.8-0.1,4.5,0.7     c0.3,0.3,1.1,3.3,1.2,3.6c0.5,2.8-6.2-1.9-5.3-2.6c-1.6,0.5-2.8-0.5-3.9-0.9l-0.4-0.1l0.1,0.5c0,0.2,0.1,0.4,0.1,0.6     c0.2,1.5,1.8,3,3,4.5l0.6,0.8l0.1,0c0.8-0.2,1.5-1,2.5-0.5c1.5,0.8,3.1,2.6,0.5,3.2c1.2,0,2.3-0.2,3,0.6c0.9,1-0.3,2.1,0.5,2.5     c0.4,0.2,3.2,1.5,1.3,1.7c-4.5,0.7-5.1-2.3-6.5-4.1l-0.8-0.8l-0.1,0.1c-1,1-3.4,2.1-3.5,2.9c1,0,1.7,0.5,2.2,1.3l0.1,0.2l0.4,0     c0.7,0.2,1.1,0.7,1.9,1.7h-0.2c1.2,0,4.1,1.4,3.7,2.2c1.2,0,0.8,1.1,0.5,1.6c-1.1,1.9,3.8-0.6,3.2,1.6c-0.5,1.9-2.8,1.2-3.8,2.6     c-1.3,1.7-0.5,3-1.3,0c-1-3.5-0.7-0.9-2.8-1.9c-0.1-0.1-0.2-0.2-0.3-0.3l-0.1-0.3l-0.3,0.2c-0.8,0.6-2.1,1.2-4.1,2.1     c0,0.1-0.1,0.2-0.1,0.2l0,0.1l0.6,0.5c1.3,0.7,2.7-0.3,3.7,0.7c0.3,0.4,1.5,2.5,1,3.1c-0.4,0.5-1.6-0.4-1.8-0.6     c-0.4-0.3-0.9-0.7-1.5-1l-1.5-0.8l0.2,0.2c1,1,2.7,1.8,3.4,3.1l0.2,0.5l1.4-0.1c1.3-0.1,2.6-0.1,3.8-0.1c1.6,0.1,2.9,1.5,3.7,2.6     c0.4,0.6,1.6,0.8,2,1.7c0.7,1.7-0.2,4.1-0.5,5.8c-0.6,3-2.1,0.9-2.7-0.6c-0.2-0.5-0.2-4.2-0.7-3.8c-0.6,0.5-1.4,0.6-2.1,0.3l0,0     l0,0.2c0,1.1,0,2.2,0.2,3.4c0.3,1.4,0,2.3-0.4,3.1l-0.1,0.2l0.7,0.8c0.2,0.3,0.3,0.6,0.4,0.9c0.2,0.7,2-0.5,3.2-0.6     c1.7-0.2,3.4,2,2.2,3.4c1.5,0,2.3,2.1,1,2.5c-1.4,0.4-1.4-1.3-2.2-1.3c-1.1,0-2.5-0.3-1.5-2c-0.5,0.5-1.6,1.3-2.5,1     c-0.5-0.1-1-0.4-1.4-0.8l-0.2-0.3l0.1,0.6c0.1,1.5-0.4,2.9-2.6,5.3l-0.3,0.3l1,0.9c0.5,0.8,0.7,1.7,1.2,2.5     c0.6,1,3.8-2.1,5.1-1.1c0.8,0.7,0.9,1.7,1,2.8c0.3,3.6-2.4,5.7-2.4,9.3c-1.7-2.2-2.7-4.2-2.7-7.4c-0.5,1-0.6,3.3-1.5,3.8     c-0.7,0.4-1.5-0.9-2.2-2.3l-0.6-1.6l-0.1,0.6c-0.2,1.3-0.3,3-0.1,4.7l0.1,1l1.8,0.5c1.7,0.6,3.3,1.4,4.7,2.3l1.5,1.1l0.1-0.4     c0.1-0.2,0.3-0.4,0.3-0.5c1.2-1.3,1.6-3.2,2.8-4.7c1.1-1.4,2.5-0.7,3-3.2c0.3-1.6,1-3.6,1.5-5.1c-2.8,0.4-1.5-1.6-0.4-2.8     c0.8-0.8,0.2-1.2,0.9-2.2c0.3-0.4,0.6,0.2,0.9,0.6c0.6,0.6,0.9,1.1,0.9,2.4c0,2,1.2,1.6,1.5,2.8c0.5,2.3,1.7,4.2,2.4,5.9     c0.8,1.8-1.3,1.9-0.4,4c0.6,1.5,1.4,0.5,2.3,1.2c0.7,0.5,0.3,1.3,0.6,2.2c0.3,1-0.8,1.2-0.6,2c0.1,0.4,1.1,0.9,1.9,1.5l0.1,0.1     l0.1-4.9c0-0.9,1.8-0.5,2.3-0.9c0.9-0.6,1.2-1.5,1.6-2.3c0.1-0.1,0.2-0.2,0.4-0.2h0l0-0.1c0.1-1.6,4.3-2.3,4.7-3.8     c0.3-1.1-0.8-1.7-1.2-2.6l-0.1-0.3l0,0c-0.2-0.3-0.3-0.5-0.4-0.9c-0.9,1.5,0.1,6.1-3.6,4.5c0,0.8-2,5.7-3.4,3.7     c-1.3-1.9,0.1-6.4,1.6-7.4c0.4-0.3,1.5,0,1.3-0.5c-0.2-0.7-0.8-1.7,0-2.3c0.7-0.5,1.7-0.8,2.3-0.3c0-2.3,1.2-2.9,3.1-3.2l0.7-0.1     l-0.1-0.1c-0.8-0.5-3.8-0.5-2.8-2.8c0.9-2.2,1.9-2.7,2.7-3.2l0.2-0.1l-1.4,0.2c-0.7,0-1.3,0-2-0.1c-0.1,0-1.4,4.2-1.9,4.7     c-0.4,0.5-1.6-0.1-1.6,1.3c-1.8-4.7,2.7-10,6.4-12.1c0,0,0.1-1.1,0.1-1.2c0.7-0.9,2.4-1.4,3.8-1.6l0.2,0l0.1-0.5     c0.1-0.3,0.2-0.6,0.4-1c0.5-1.1-0.9-2.9-1.8-4.6l0-0.1l-0.1,0.1c-0.4,0.3-0.9,0.5-1.5,0.5c-0.9,0,0.8,1,1.1,1.8     c0.3,0.7,0.2,1.6,0,2.2c-0.5,1.7-2.9-0.2-3.6-0.8c1.5,4-5.6,2.6-3.4,1.6c-3.3-2.9,4.2-5.5,4.7-7c0.2-0.5,1.1-2.3,1.6-2.4l1.1-0.1     l0.5-0.4l0.4-0.4l-0.1,0c-1.7-0.4-3.5-1.8-4-0.7c-0.5,1.1-1,3.2-2.2,3.7c-0.5,0.2-0.9,0.2-1.1-0.2c-1.3-2.2,2.4-6.5,4.5-6.7     c1.7-0.2,2.6-0.6,3.7-1.2l0.9-0.5l0.1-0.4c0.3-1,0.7-1.7,1.3-2.4l0.2-0.3l-0.1-0.5c-0.4-1.8,0.3-1.9-0.1-4     c-0.3-1.6,1.3-1.2,1.6-2.3c0.2-0.8-1.2-3.1,0-2.7c0.8,0.2,1.2,1.7,0.9,2.4c-0.5,1.1,1,1.1,1.6,2c1.7,2.5-1.6,1.5-1.6,2.9l0.1,0.9     l0.2,0.3c1.2,1.7,0.2,2.7,1.7,4.3c1.1,1.1,2.3,2.7,2.7,3.9l0.1,0.2l0.1,0.1c1.3,1.2,3.1,3.4,3.2,4.1c0.2,1.2,0,4.7-1.8,3.1     c-0.6-0.5-0.5-1.6-0.7-2.5c-0.2-1.3-2.3-0.8-2.7-2.4l-0.2-0.6h0c-0.4,0-0.9,0-1.5-0.1c0.9,2.5,1.9,5.5,2.6,8.3l0.1,0.5l1.6,0.6     c1.6,0.5,4.4,1.1,4.9,2.7c0.3,0.9-1,1.7-0.2,2.3c0.2,0.2,4.1,4.3,1.3,4.3c-2.1,0-2.3-1.8-2.9-3.3c0-0.1-1.9,1.3-2.7,1.6     c-0.9,0.3-0.2-3.5-0.2-4.5c-0.3,0.3-0.6,0.4-0.9,0.5l-0.4,0l0,0.2c-0.4,2.4-2.9,1.7-1,4c2.5,3.2-1.2,1.1,1.3,3.8     c0.3,0.3,0.8,1,1.1,1.8l0.1,0.3l0.4,0.4c0.4,0.5,0.9,1.1,1.2,1.1c2.1,0.3,3.1,1.8,3.1,3.7c0,2.7,0.5,1.3,3.1,2.6     c1.6,0.8,2.2,1.5,2.5,3.1l0.9,0.5l0.9-0.4c0.6-0.4,1.2-0.9,1.5-2.3c0.3-1.8,1.1-4.1,1.7-5.9c-3.3,0.5-1.7-1.9-0.4-3.2     c0.9-0.9,0.2-1.4,1.1-2.5c0.4-0.5,0.7,0.3,1.1,0.7c0.7,0.7,1.1,1.2,1.1,2.7c0,2.3,1.4,1.8,1.7,3.2c0.6,2.6,2,4.9,2.8,6.8     c0.9,2-1.5,2.2-0.4,4.5c0.7,1.7,1.6,0.6,2.6,1.4c0.8,0.6,0.3,1.5,0.7,2.5c0.4,1.1-0.9,1.4-0.7,2.3c0.3,1,4.8,2.2,2.2,3.9     c-1,0.7-2.8,0.6-3.9,1.1c-1.2,0.6,1,1.8,2.2,3.4c0.8,1.2,1.4,3.2,2.4,4.1c2.6,2.3,6.1,4.1,0.4,4.1c1.6,0,3.6,2.3,1.1,2.3     c-2,0-3.9,0-5.6,0.5c2.3,0,11.9,1.9,7.6,4.1c0.5,0.6,2.7,2.1,3.7,2.5c0.3,0.1,2.1,0.4,2.2,0.5c0.1,0.6-0.9,0.7-1.1,1.4     c-0.1,0.4,2.5,1.9,2.8,3c-4.2,0-7.4-1.1-11.9-1.1c4.2,0,5.7,6.6,9.1,6.6c-0.5,0.5-0.6,1-0.5,1.5l0.3,0.4l0,0l3.8,0l4.1-0.7     l1.2-1.3l0.7-0.3l-0.4-0.3c-0.1-0.1-0.3-0.2-0.4-0.4c-1.2-1.5-7.2,0.9-5.6-1c2.9-3.6,3.7-6.6,7.6-9.7l0.2-0.1l-1.5,0.7     c-1.1,0.6-1.6,2.1-2.9,2.4c-0.6,0.1-0.9-0.1-1.2,0.2c-0.6-0.6-0.9-1.1-0.7-2.1c-0.1-1-0.4-2-0.5-3c-0.3-3.8,2.9-2.7,4.8-5.1     c0.5-0.7,1-1.9,1.7-2.4c0.8-0.6,2.2-0.1,3.4-0.1l0.6-0.1l0.4-0.6c0.6-1-0.2-2,0.7-2.8c0.3-0.3,4.7-0.2,2.6-2.4     c-0.4-0.4-1.3,0.4-1.6,0c-0.1-0.1-0.1-0.3-0.1-0.5l0-0.1l-0.4,0.1c-0.2,0.1-0.5,0.2-0.9,0.4c-1.4,0.7-1.7,2.3-3.1,2.5     c-2.4,0.5-0.3-0.5-2.2-1.4c-1.8-0.8-3.4-0.6-5.5-0.3l-0.7,0.1l0.1,0.6c-0.6-0.2-0.7-0.4-0.2-0.6l0.1,0l0-0.2     c-0.2-1.9,1.4-4.1,2.1-5.7c1-2.2,6.4-6.4,8.9-4.2c0.2,0.1,1.2-0.7,1.4-0.8c0.4-0.2,0.8-0.4,1.1-0.7l0.9-0.6l0.1-0.4     c0.1-0.2,0.2-0.4,0.3-0.5c1.3-1,3,0,3.6-1.7c0.5-1.5-2.3-2.6-2.5-3.8c0-0.2,0.1-0.5,0.3-0.8l0.1-0.1l-0.6-0.4     c0,3.7-3.8,6.3-3.8,0.8c-0.5,1.4-0.7,2.9-2.2,3.6c-0.4,0.2-0.3-0.7-0.7-0.9c-0.6-0.3-0.4,2.5-1.9,1.7c-0.9-0.5-0.8-1.4-0.4-2.3     l0.3-0.4l-0.1,0.1c-1.4,0.5-0.3-3.7,0.3-4.3c0.8-0.8,1.6-1.4,2.4-1.8l0.2-0.1l0.4-0.8c0.2-0.2,0.5-0.4,0.8-0.5l0.7,0l0.2-0.1     c0.4-0.3,0.8-0.7,1.2-1.1l0.3-0.3l0-0.6c0-0.7,0.2-1,1.2-1.1l0.2,0l0.3-0.3l-0.3-0.4c-0.2-0.6,0.3-1.2,1-1.5l0.8-0.3l0.3-0.5     c0.6-1.1,0.9-2.1,0.7-3c-0.4-1.3-5.1-0.9-4.8-2.5c0.2-1.2,2.7-0.6,4-1.7c1.8-1.4,2.6-4.5,3.2-6c-4.9,0.7-2.5-2.9-0.7-4.8     c1-1.1,0.7-1.7,1-2.7l0.2-0.3l-0.1-0.1c-0.3-0.1-0.8-0.1-0.5-0.6c0.5-0.9,1.3-4.9,2.2-4.7c0.2,0,0.3,1.5,0.3,1.6     c0.1,1.1-0.7,1.3-0.7,1.8c0,0.3,0.9,0.4,0.9,0.8c0,0.2,0,0.5-0.1,0.9l-0.1,0.4l0.1,0.2c1,1.1,1.6,1.9,1.6,4.1     c0,3.5,2.1,2.8,2.6,4.8c0.1,0.3-1.2,3.4-0.5,4c1.2,1.2,4.4,0.2,3.4,1.7l0,0.1l0.8,0.1c2.3,0.4,5.5,1.1,4.3,3.1     c1.4,0.6,1,1.2,0,2.1c-0.4,0.4-1.5-2.2-1.9-2.1c-0.2,0.1-0.7,0.9-1.2,1.1c-1.8,0.6-1.2-1.6-2.1-1.5c-0.8,0.1-1.8,1.1-2.7,0.4     l-0.6-0.7l-0.2,0.1c-0.7,0.4-1.2,0.7-1.1,0.9c1,2.3,10.6,2.8,8.4,3.4c-4.8,1.2-4.5,0.9-2.9,4.5c1.1,2.5,2.4,0.9,3.9,2.1     c1.2,0.9,0.4,2.3,1,3.8c0.6,1.7-1.3,2.1-1,3.4c0.3,1.4,5.6,2.8,4.3,4.9l-0.1,0.1l0,0c0.8,1.1,2.1,1.3,1.5,3     c-0.2,0.6-1,1.2-0.3,1.8c1,0.9,0.5,1.2-0.2,2.2c-0.6,0.9-2.8-2.2-3.3-2.7c-0.6-0.6-1.6-2.7-1.9-1.5c-0.2,0.7-1.2,0.8-2.6,0.8     l-0.5,0l0.2,0.3c0.7,1,2.4,2.3,3.5,3.8c0.3,0.4,0.6,1,0.9,1.5l0.7,1.4l0.5-0.4c1.7-0.9,4.6,0.2,5.2,1.7c1-1.1,2.7-1,3.9,0     c1.9,1.5,3.1,4.3,5.5,5.4c-0.5,0.9,2.7,2.1-0.5,3c-0.5,0.2-1,0.3-1.5,0.3c-1.9,0.1-3-0.4-4.5-1.5c-0.7-0.5-1.4-1.7-1.4-0.9v0.5     l0,0.1c0,0.1,0.1,0.2,0,0.3l-0.1,0.1l0,1.5c-0.1,0.8-0.3,1.5-0.8,2.1c-0.8,0.9-2,1.2-3.3,1.1l-1.9-0.4l-1.3,0     c-1.4,0.1-2.8,0.3-4.1,0.6c3.5,0,18,2.8,11.5,6.2c0.8,0.9,4.2,3.2,5.6,3.8c0.4,0.2,3.3,0.5,3.3,0.7c0.1,0.5-0.2,0.8-0.7,1     l-0.2,0.3l3.6,0.2l0.2,0l0.7-0.2c1.5-0.3,3-0.5,3.7-0.5c-0.8-0.2-1.8-0.3-2.7-0.4l-0.9,0l-1.3,0.3c-0.9,0.1-1.6-0.1-2.1-0.8     c-0.3-0.4-0.4-0.9-0.5-1.4l0.1-1l0-0.1c0-0.1,0-0.2,0-0.2l0,0l0-0.3c0-0.5-0.5,0.3-1,0.6c-1,0.7-1.8,1.1-3,1     c-0.4,0-0.7-0.1-1-0.2c-2.1-0.6,0.1-1.4-0.2-2c1.7-0.7,2.6-2.6,3.9-3.6c0.9-0.7,2-0.7,2.6,0c0.4-1,2.5-1.7,3.5-1.1l0.3,0.3     l0.5-0.9c0.2-0.4,0.4-0.7,0.7-1c0.8-1,2-1.9,2.5-2.5l0.1-0.2l-0.4,0c-0.9,0-1.6,0-1.7-0.5c-0.1-0.8-0.9,0.6-1.3,1     c-0.3,0.3-2,2.4-2.3,1.8c-0.4-0.7-0.7-0.9,0-1.5c0.5-0.4,0-0.8-0.1-1.2c-0.3-1.2,0.6-1.3,1.2-2l0,0l-0.1-0.1     c-0.8-1.4,2.8-2.4,3.1-3.3c0.3-0.9-1-1.1-0.5-2.3c0.4-1,0-1.9,0.8-2.5c1.1-0.7,1.9,0.3,2.7-1.4c1.2-2.4,1.4-2.2-1.7-3     c-1.4-0.4,5-0.7,5.7-2.2c0.1-0.1-0.2-0.3-0.7-0.6l-0.1-0.1l-0.5,0.4c-0.7,0.4-1.3-0.2-1.8-0.3c-0.6-0.1-0.2,1.4-1.4,1     c-0.3-0.1-0.6-0.7-0.7-0.7c-0.3-0.1-1.1,1.6-1.3,1.4c-0.6-0.6-0.9-1,0.1-1.4c-0.7-1.4,1.4-1.8,3-2.1l0.6-0.1l0,0     c-0.6-1,1.5-0.3,2.4-1.1c0.5-0.4-0.2-2.5-0.2-2.7c0.4-1.4,1.8-0.9,2-3.2c0.1-1.5,0.5-2,1.3-2.7c0.4-0.4,0.8-1.2,1.1-0.7     c0.8,1.1,0.1,1.6,0.9,2.5c1.2,1.3,2.6,3.7-0.7,3.2c0.3,1,0.7,3.1,1.8,4c0.8,0.7,2.5,0.3,2.6,1.1c0.1,1-3,0.8-3.3,1.7     c-0.2,0.6,0,1.3,0.3,2l0.2,0.3l0.5,0.2c0.5,0.3,0.8,0.6,0.6,1l-0.2,0.2l0.2,0.2l0.1,0c0.7,0.1,0.8,0.2,0.7,0.7l0,0.4l0.2,0.2     c0.2,0.3,0.5,0.5,0.7,0.7l0.1,0.1l0.5,0c0.2,0,0.4,0.2,0.5,0.3l0.3,0.5l0.2,0.1c0.5,0.3,1,0.7,1.5,1.2c0.4,0.4,0.9,3.2,0,2.9     l-0.1,0l0.2,0.3c0.2,0.6,0.2,1.1-0.4,1.5c-1.1,0.6-0.7-1.3-1.2-1.1c-0.3,0.1-0.2,0.7-0.5,0.6c-1-0.4-1-1.5-1.3-2.4     c-0.3,3.7-2.6,1.9-2.5-0.5l-0.4,0.2l0,0.1c0.1,0.2,0.2,0.4,0.2,0.5c-0.2,0.8-2.1,1.6-1.8,2.5c0.3,1.1,1.5,0.5,2.3,1.1     c0.1,0.1,0.2,0.2,0.2,0.3l0,0.3l0.6,0.4c0.3,0.2,0.5,0.3,0.7,0.5c0.1,0.1,0.8,0.6,0.9,0.5c1.8-1.4,5.2,1.3,5.7,2.8     c0.4,1.1,1.3,2.5,1.1,3.8l0,0.1l0.1,0c0.3,0.1,0.2,0.3-0.2,0.4l0.1-0.4l-0.4-0.1c-1.3-0.2-2.4-0.3-3.7,0.2     c-1.3,0.6,0,1.2-1.5,0.9c-0.9-0.2-1.1-1.2-1.9-1.7c-0.2-0.1-0.4-0.2-0.6-0.3l-0.2-0.1l0,0c0,0.1,0,0.2-0.1,0.3h-1.1     c-1.5,1.4,1.4,1.4,1.6,1.6c0.5,0.5,0,1.2,0.3,1.8l0.2,0.4l0.4,0.1c0.8,0,1.7-0.3,2.3,0.1c0.5,0.3,0.7,1.2,1,1.6     c1.1,1.6,3.3,0.9,2.9,3.4c-0.1,0.7-0.4,1.3-0.5,2c0.1,0.7-0.1,1-0.6,1.4c-0.2-0.2-0.4,0-0.8-0.1c-0.9-0.2-1.1-1.2-1.8-1.6l-1-0.5     l0.1,0.1l1.9,2.3l9,0.5c3.1,0.1,6,0.2,8.9,0.3l1.7,0l1.4-2.1c0.7-0.9,2-1.6,1.3-1.9c-0.6-0.3-1.6-0.3-2.1-0.6     c-1.4-1,1.2-1.6,1.4-2.2c0.2-0.5-0.5-0.6-0.3-1.3c0.2-0.6,0-1.1,0.5-1.4c0.6-0.4,1,0.2,1.5-0.8c0.7-1.3-0.6-1.4-0.1-2.5     c0.2-0.3,2.3-0.8,2.2-1.1c-0.1-0.8-2.5,0.2-2.3-0.1c0.2-0.3,1.4-1.3,2.2-1.1c0.5-0.4-0.3-1.1-0.2-1.5c0.2-0.8,1-0.5,1.1-1.8     c0.1-0.8,0.3-1.1,0.7-1.5c0.3-0.2,0.4-0.6,0.6-0.4c0.4,0.6,0,0.9,0.5,1.4c0.6,0.7,1.4,2.1-0.4,1.8c0.1,0.4-0.1,0.8,0.7,2.5     c0.2,0.3-0.8,1.5-0.6,1.8c0.1-0.1,0.5-0.1,0.8,0l0.6,0.3l0.1-0.1c0.3-0.4,1.2-1.1,1.9-0.9c0.4-0.4-0.4-1.1-0.3-1.5     c0.2-0.7,0.9-0.5,0.9-1.7c0-0.8,0.2-1.1,0.6-1.5c0.2-0.2,0.4-0.6,0.6-0.4c0.5,0.6,0.1,0.8,0.6,1.3c0.7,0.7,1.5,2-0.2,1.7     c0.1,0.4-0.1,0.7,0.8,2.4c0.2,0.3-0.6,1.4-0.5,1.8c0.5-0.4,3.2,0.9,3.5,1.8l0,0.1l0,0c0.2-0.2,0.7-0.7,0.6-1.1     c-0.1-0.2-0.7-0.1-0.7-0.4c0-0.2,0.4-0.1,0.6-0.2c0.3-0.2,0.4-0.6,0.5-0.9c-0.7,0.1-0.4-0.4-0.1-0.7c0.2-0.2,0.1-0.3,0.2-0.5     c0.1-0.1,0.1,0.1,0.2,0.1c0.2,0.2,0.2,0.3,0.2,0.6c0,0.5,0.3,0.4,0.4,0.7c0,0-0.2,0.5-0.1,0.6c0.2,0.2,0.6,0,0.5,0.2     c-0.2,0.3-0.7,0.4-0.7,0.5c0.1,0.3,1.5,0.4,1.2,0.5c-0.7,0.2-0.6,0.1-0.4,0.6c0.2,0.4,0.3,0.1,0.6,0.3c0.2,0.1,0.1,0.3,0.1,0.5     c0.1,0.2-0.2,0.3-0.1,0.5c0.1,0.2,1,0.5,0.5,0.8c-0.2,0.1-0.6,0.1-0.8,0.2c-0.2,0.1,0.2,0.4,0.5,0.7c0.2,0.3,0.3,0.7,0.5,0.9     c0.6,0.5,1.3,0.9,0.1,0.9c0.3,0,0.8,0.5,0.2,0.5c-0.4,0-0.8,0-1.2,0.1c0.5,0,2.5,0.4,1.6,0.9c0.1,0.1,0.6,0.4,0.8,0.5     c0.1,0,0.5,0.1,0.5,0.1c0,0.1-0.2,0.2-0.2,0.3c0,0.1,0.5,0.4,0.6,0.6c-0.9,0-1.6-0.2-2.6-0.2c0.9,0,1.2,1.4,2,1.4l0.1,0.6     l9.4,0.1c9.4,0.3,11.5,10,21,9.1c12.7-2.3,20.9,9.1,35,9.2c14-6,24.5-9.4,43.9-8.5l141.4,4.2l12-13.2c5.6-1,6.2,1.3,7.7,2.8     l12.7-3.5l0.3-0.4c1.7-1.1,2.8-2.2,4.3-3.3c0.6-0.5,1.5-0.6,1.8-1c-1.2-0.5-2.9-0.4-3.5-1.3c-0.4-0.5-2.6,0.4-2.1-0.4     c1.2-1.5,1.4-2.8,3.5-4.1c0.1-0.1-0.1-0.3,0-0.4c0.4-0.2,2.1-0.6,1.8-1.4c0-0.1-2.1,0-2.3,0c0.5-0.5,0.9-0.8,1.3-1.5     c0.2-0.4-0.1-0.8,0.2-1c0.1-0.1,1.7-0.1,1-0.9H566c-0.2-0.2,0.2-0.6,0-0.8c-0.3-0.4-2.2,0.5-2.2-0.3c0-1.2,2.3-1.3,2.7-2.4     c0.1-0.3,0-0.8,0.2-1c0.5-0.4,1.1,0,1.3-0.6c0.3-1-1.6-1.5-4.1-1c-0.4-0.8,3.5-1.4,4.2-1.1c0.6-0.8-3-1.6-3.1-1.5     c0.2-0.4,3.2-0.7,3.4-0.9c0.3-0.7-3.8-0.2-3.8-0.1c-0.1-0.9,3.1-2.4,3.7-2c0.2-0.4-0.6-1.5-0.5-1.8c0.9-1.7,0.7-2.1,0.8-2.5     c-1.8,0.3-0.9-1.1-0.2-1.8c0.5-0.5,0.1-0.8,0.6-1.4c0.2-0.3,0.4,0.1,0.6,0.4c0.4,0.4,0.6,0.7,0.6,1.5c0,1.3,0.8,1,1,1.8     c0.1,0.4-0.7,1.1-0.3,1.5c0.4-0.1,0.9,0.1,1.3,0.4l0.7,0.6l0.1-0.1c1.3-0.7,3-1.3,3.5-2.5c0.2-0.6,0-1.5,0.4-1.8     c0.9-0.7,2,0,2.4-1.1c0.6-1.7-2.8-2.7-7.4-1.8c-0.6-1.5,6.3-2.5,7.4-2c1.1-1.5-5.3-2.8-5.5-2.6c0.3-0.7,5.7-1.3,6-1.6     c0.5-1.3-6.8-0.4-6.7-0.3c-0.3-1.6,5.5-4.3,6.5-3.6c0.4-0.6-1.2-2.7-0.8-3.3c1.7-3,1.3-3.7,1.5-4.4c-3.3,0.5-1.7-1.9-0.4-3.2     c0.9-0.9,0.2-1.4,1.1-2.5c0.4-0.5,0.7,0.2,1.1,0.7c0.7,0.7,1.1,1.2,1.1,2.7c0,2.3,1.4,1.8,1.7,3.2c0.2,0.7-1.3,2-0.5,2.7     c1.5-0.4,3.5,1.4,3.8,1.9c0.2,0.5-3.8-1.2-4.1,0.2c-0.2,0.5,3.5,1.4,3.7,2c0.9,2-1.5,2.2-0.4,4.5c0.7,1.7,1.6,0.6,2.6,1.4     c0.8,0.6,0.3,1.5,0.7,2.5c0.4,1.1-0.9,1.4-0.7,2.3c0.3,1,4.8,2.2,2.2,3.9c-1,0.7-2.8,0.6-3.9,1.1c-1.2,0.6,1,1.8,2.2,3.4     c0.8,1.2,1.4,3.2,2.4,4.1c0.3,0.3,0.7,0.6,1,0.9h0l0,0c0.5-0.5,1.1-1,1.9-1.5c0.2-0.1-0.2-0.5,0-0.6c0.3-0.1,1.1-0.4,1.7-0.7     l0.5-0.4l-0.2-0.3c-0.1-0.2,0-0.4,0.1-0.5l0.2-0.2l-0.2,0c-0.9,0-2.7,0.1-2.9,0.1c0.7-0.8,1.3-1.2,2-2.3c0.3-0.5-0.1-1.1,0.4-1.5     c0.2-0.1,2.6-0.1,1.5-1.3h-0.9c-0.2-0.3,0.2-0.9,0-1.1c-0.5-0.6-3.3,0.8-3.3-0.4c0-1.8,3.4-1.9,4-3.6c0.2-0.5,0-1.3,0.4-1.5     c0.7-0.6,1.7,0,2-1c0.5-1.4,1.5-3.4-0.9-3.4c-2.1,0,0.4,2.3-2.3,1.7c-1.3-0.3-3.3-1.7-3-2c0.6-0.6,2.8-1.5,4.1-2.2     c1.4-0.7,2-1.2,2.6-2c1-1.3-3.7-2.9-1.1-3.4c3.3-0.6,0-1.8,2.9-2c-2.9-0.5-1.7-2.1-1.4-3c-1.9,0.3-1.7-1.5-0.8-2.5     c0.4-0.4,1.2-0.2,1.5-0.5c0.7-0.8,0.5-4.3,1.2-5.2c0.3-0.4,0.8,2.8,0.5,3.7c-0.3,0.8,1.1,1,1.1,2.2c0,1.9,0,1.9,0.3,3     c0.2,0.8,2.2,1.7,2.5,2.4c0.2,0.4-2.1,0.9-2.1,1.3c1.4,0,1.7,1.3,2,2c0.4,0.9-0.1,1-2.5,1.8c-0.8,0.9,1.8,1.2,2.2,2.1     c0.2,0.3,0.3,0.6,0.5,0.7l0.5,0.2l0.8-1.7c0.5-1.4,2.5-0.9,2.5-3.2c0-1.5,0.6-2,1.6-2.7c0.6-0.4,1.1-1.1,1.6-0.7     c1.2,1.1,0.3,1.6,1.6,2.5c1.8,1.3,4.1,3.7-0.6,3.2l2,4.6l0.3-0.2l0-0.1c-0.3-2.1,1.2-4.5,1.8-6.2c0.2-0.6,0.7-1.4,1.5-2.1     l0.1-0.1l-0.6,0c-1.9-0.1-0.5-2.1,0.6-3.2c0.9-0.9,0.2-1.4,1.1-2.5c0.4-0.5,0.7,0.3,1.1,0.7c0.7,0.7,1.1,1.2,1.1,2.7l0,0l2.1-0.8     c0.9-0.1,1.8,0,2.6,0.6c0.2,0.2,1.3-0.7,1.4-0.8c0.4-0.2,0.8-0.5,1.2-0.8l0.9-0.7l0-0.5c0.1-0.2,0.2-0.4,0.3-0.6     c1.4-1.1,3.3,0,3.8-1.9c0.5-1.6-2.7-2.8-3-4.2c-0.1-0.3,0.1-0.6,0.3-0.9l0.1-0.1l-0.6-0.4c0.3,4-3.6,6.9-4.1,0.8     c-0.5,1.5-0.5,3.2-2.1,3.9c-0.5,0.2-0.3-0.8-0.8-1c-0.7-0.3-0.2,2.8-1.9,1.8c-1.1-0.6-1-1.6-0.7-2.5l0.3-0.5l-0.1,0.1     c-1.5,0.6-0.6-4,0-4.7c0.8-0.9,1.6-1.5,2.5-2l0.2-0.2l0.4-0.8c0.2-0.3,0.5-0.5,0.9-0.5l0.8,0l0.2-0.1c0.4-0.3,0.8-0.7,1.2-1.2     l0.3-0.4l-0.1-0.6c-0.1-0.8,0.1-1.1,1.2-1.2l0.2,0l0.3-0.4l-0.3-0.4c-0.3-0.7,0.2-1.3,1-1.7l0.8-0.3l0.3-0.5     c0.5-1.2,0.8-2.3,0.5-3.3c-0.5-1.5-5.6-1-5.4-2.7c0.1-1.3,2.9-0.7,4.3-1.8c1.9-1.6,2.5-4.9,3-6.6c-5.3,0.8-3-3.1-1.1-5.3     c1.4-1.5,0.2-2.4,1.5-4.1c0.6-0.8,1.2,0.4,1.9,1.1c1.2,1.2,2,2,2.1,4.5c0.3,3.9,2.6,3,3.3,5.3c0.1,0.3-1,3.7-0.2,4.4     c1.4,1.3,4.8,0.2,3.9,1.8l0,0.1l0.9,0.2l3,0.8l0.3-0.6c0.5-0.9,0.9-1.7,1.2-2.5c1.9-4.3,12.4-12.3,17.1-8.1     c0.3,0.3,2.3-1.3,2.6-1.4c0.7-0.4,1.5-0.9,2.2-1.4l1.7-1.2l0.1-0.8c0.1-0.4,0.3-0.7,0.6-1c2.6-1.9,5.8-0.1,7-3.3     c1-2.8-4.4-4.9-4.8-7.4c-0.1-0.5,0.2-1,0.6-1.5l0.1-0.1l-1.1-0.7c0,7-7.2,12.1-7.2,1.4c-1,2.6-1.3,5.6-4.3,6.9     c-0.8,0.4-0.5-1.4-1.3-1.7c-1.2-0.5-0.7,4.9-3.6,3.2c-1.8-1-1.6-2.7-0.9-4.4l0.5-0.9l-0.2,0.1c-2.8,1-0.5-7.1,0.6-8.3     c1.5-1.6,3.1-2.6,4.6-3.6l0.5-0.3l0.8-1.5c0.4-0.5,0.9-0.8,1.6-0.9l1.4-0.1l0.3-0.2c0.8-0.6,1.5-1.3,2.3-2.1l0.5-0.6l0-1.1     c0-1.4,0.3-2,2.3-2.1l0.4,0l0.5-0.6l-0.5-0.7c-0.5-1.2,0.5-2.2,2-3l1.5-0.5l0.6-0.9c1.1-2.1,1.8-4.1,1.3-5.8     c-0.7-2.6-9.8-1.8-9.2-4.8c0.4-2.3,5.2-1.2,7.7-3.2c3.5-2.8,5-8.6,6.1-11.6c-9.5,1.4-4.9-5.5-1.3-9.3c2.6-2.7,0.7-4.2,3.2-7.3     c1.1-1.4,2,0.7,3.2,2c2,2.1,3.2,3.6,3.2,8c0,6.8,4.1,5.3,5.1,9.3c0.1,0.5-2.2,6.4-1,7.7c2.2,2.2,8.4,0.4,6.6,3.2l-0.1,0.1     l1.6,0.3c4.5,0.7,10.5,2,8.2,6c2.8,1.2,1.9,2.4,0,4c-0.8,0.7-2.8-4.2-3.6-4c-0.4,0.1-1.4,1.7-2.3,2c-3.5,1.2-2.3-3.1-4-2.9     c-1.5,0.2-3.5,2-5.3,0.9l-1.2-1.3l-0.4,0.2c-1.3,0.8-2.3,1.4-2.1,1.8c1.9,4.5,20.4,5.4,16.2,6.4c-9.2,2.3-8.6,1.8-5.7,8.7     c2.1,4.9,4.7,1.8,7.6,4c2.4,1.8,0.9,4.4,1.9,7.3c0.9,2.5-1,3.5-1.7,5l-0.2,1.6l1.9-0.9c4.3-2.1,6.1-3.7,7.9-5.8     c3.3-3.9-10.6-8.7-2.7-10.2c9.9-1.8,0.4-5.4,8.8-5.8c-8.5-1.4-4.8-6.4-3.8-8.8c-5.7,0.8-4.7-4.3-1.9-7.4c1.2-1.3,3.7-0.5,4.6-1.5     c2.3-2.3,2-12.7,4.2-15.4c1-1.2,1.9,8.4,0.9,11c-0.9,2.2,3,2.9,2.8,6.6c-0.3,5.8-0.2,5.5,0.5,8.8c0.4,2.4,6.2,4.9,7,7     c0.5,1.2-6.2,2.8-6.4,3.9c4.2-0.1,4.8,3.9,5.6,6c1.1,2.7-0.3,3-7.8,5.2c-2.4,2.6,5.1,3.4,6.1,6.1c1.6,4.2,3.9,1.5,6.3,3.4     c2,1.5,0.5,3.7,1.3,6.2c0.9,2.8-2.3,3.4-1.9,5.6c0.5,2.6,11.6,5.3,4.9,9.6c-2.6,1.7-7.1,1.5-9.8,2.8c-2.9,1.4,2.3,4.4,4.9,8.4     c1.9,2.9,3.2,8,5.4,10.1c6.2,5.8,14.7,10.1,0.6,10.1c4,0,8.6,5.6,2.4,5.6c-4.9,0-9.7,0-14,1.1c5.7,0,29.1,4.6,18.3,10.1     c1.3,1.4,6.5,5.2,8.8,6.2c0.7,0.3,5.3,0.9,5.3,1.1c0.3,1.6-2.4,1.8-2.9,3.4c-0.3,1.1,5.9,4.8,6.6,7.3c-7.8,0-14.1-1.6-21.5-2.4     l-3.5-0.2l1.2,1.7l1,0.6c5.6,4.6,8.7,13.8,15.2,13.8c-0.6,0.6-1,1.2-1.2,1.8l-0.1,0.8l0,0l8.9,0l4.3,0.1l-0.2,64.9L16,781.7z      M270.3,715l0.4-0.3h0c-0.1,0-0.2,0-0.3,0.1C270.3,714.8,270.3,714.9,270.3,715L270.3,715z M270.1,712.6l0.1-0.1     c0.2-0.3,0.4-0.5,0.8-0.8c0,0,0-0.1,0-0.1c0.1-0.1,0.8-0.2,0.7-0.5h-0.9c0.2-0.2,0.3-0.3,0.5-0.6c0.1-0.1,0-0.3,0.1-0.4     c0,0,0.7,0,0.4-0.3h-0.2v-0.2l-0.1,0c-2-0.2-3.3,0.3-3.1,1.1c0.2,0.6,0.8,0.3,1.3,0.6c0.2,0.2,0.1,0.6,0.2,1     C269.9,712.4,270,712.5,270.1,712.6L270.1,712.6z M575.2,711.4L575.2,711.4l-0.2-0.1L575.2,711.4z M262.7,710l0-0.1     c-0.1-0.3-0.6-0.5-0.4-1.1l0,0l-0.2,0.1c-0.2,0.2-0.3,0.4-0.2,0.6c0.1,0.3,0.3,0.4,0.5,0.4L262.7,710z M271.2,708.9l0.6-0.4     c0-0.1,0-0.3,0.1-0.4c0.2-0.1,0.4,0,0.5-0.2c0.1-0.2-0.3-0.4-0.3-0.5c0-0.1,0.4-0.3,0.1-0.3c-0.4,0-0.4-0.1-0.8,0.1l-0.1,0.1l0,0     c0,0,0.1,0,0.1,0.1c0,0,0,0-0.1,0h-0.1l-0.3,0.2c-0.1,0-0.1,0-0.1,0l0-0.1l-0.2,0c-1,0.2-2.5,0.7-2.1,1.3c0.4-0.1,1.7,0,2.7,0.2     L271.2,708.9z M262.1,707.4c0.2-0.1,0.5-0.1,1-0.1l0.1,0l0.3,0c0.2,0,0.4-0.1,0.6-0.6c0.1-0.2,0.1-0.3,0.1-0.4v-0.3l-0.8,0.2     C262.5,706.6,261.8,707,262.1,707.4z M270.7,707l0-0.1l0.8-0.6l-0.1,0c-0.7-0.1-3.7-0.4-3.4,0.2     C268.2,706.5,269.8,706.7,270.7,707L270.7,707z M264,705.5l-0.2-0.5c0-0.1,0-0.2,0-0.3l0,0h0c-1,0-1.9,0-1.8,0.4     c0.1,0.1,0.9,0.2,1.7,0.3L264,705.5z M264.9,703.9L264.9,703.9c0.6-0.2,1-0.4,1-0.6c-0.1-0.6-1.4-0.2-1.9-0.1l-0.1,0l0.4,0.2     L264.9,703.9z M595.5,701.7l1.5-0.8l-1.2-0.3l-1.7-0.8l-2.8,0.1c-0.9,0.1-1.9,0.2-2.7,0.4c1.1,0,4.1,0.5,6.3,1.2L595.5,701.7z      M70.5,700.6l0.1-0.1l0.9-1.4l-0.1,0c-1.5,0.1-2.9,0.4-4.3,1c0.4,0,1.1,0.1,1.8,0.2L70.5,700.6z M120,700.1l1.2-1.5l1.6-1.2     l-0.7,0c-1.8-0.1-3.6-0.1-3.7,0.2c-0.2,0.6-0.1,1.2,0.4,1.7L120,700.1z M574,699.3l1-0.4c0.8-0.4,1.4-1,1.2-1.6     c0-0.1-0.6-0.1-1.3-0.1h-0.1l-1.8,0.5c-0.3,0.2-0.2,0.4,0.1,0.7L574,699.3z M124.4,695.9l1.2-0.5c0.8-0.4,1.4-1,1.2-1.6     c-0.1-0.2-3.8,0-4.1,0c0.9-0.9,1.6-1.4,2.4-2.7c0.4-0.6-0.1-1.3,0.4-1.8c0.2-0.2,3.1-0.1,1.7-1.6h-1.1c-0.3-0.3,0.3-1,0-1.4     c-0.6-0.7-3.9,0.9-3.9-0.5c0-2.1,4-2.3,4.8-4.3c0.2-0.6,0-1.5,0.4-1.8c0.9-0.7,2,0,2.4-1.1c0.6-1.7,1.8-4.1-1.1-4.1     c-1.9,0-2.7,1.7-4.3,2.2l-0.8,0l0.5,0.4c0.3,0.5,0.2,3.3,0,3.2c-0.9-0.3-2-1-2.8-1.5c-0.7-0.4-1.1-0.8-1.8-1.3l-1.2-1.3l0,0.3     c0.1,1.6-1.6,0.9-1.6,4.1c0,2.5,3.9,1.8,2.9,3.1c-0.5,0.6,0.5,1.9,0,2.5c-0.4,0.5-1.5-0.5-2,0c-2.6,2.7,2.8,2.6,3.2,3     c1,0.9,0.1,2.2,0.8,3.4c0.7,1.2,1.4,2.1,2.2,2.8L124.4,695.9z M574.2,695L574.2,695c0.1-0.2,0.2-0.3,0.3-0.5     c0.4-0.6-0.1-1.3,0.4-1.8c0.2-0.2,3.1-0.2,1.7-1.6h-1.1c-0.3-0.3,0.3-1,0-1.4c-0.4-0.5-1.8,0-2.8,0.1h-0.1l0,0.3     c-0.2,0.3-0.4,0.7-0.1,1.3c0.4,0.9,0.9,0.3,1.5,0.8c0.5,0.3,0.2,0.8,0.4,1.4c0.2,0.6-0.5,0.8-0.4,1.3L574.2,695z M76.5,694.6     l0.1-0.1c0.7-0.4,1.3-0.8,1-1.4c0,0-0.1,0-0.2-0.1l-0.3,0l-0.7,0.2c-0.6,0.1-1.3,0.1-2.2,0.1c0.6,0,1.3,0.4,1.9,0.9L76.5,694.6z      M77.9,688.8l0.4-0.3c0.1-0.2,0-0.4-0.3-0.7c-0.2-0.2-0.5,0.1-0.7,0.1l-0.1,0l0.5,0.7L77.9,688.8z M617.5,688.7l0.2-0.2     c0.2-0.2,0.3-0.4,0.4-0.7c0.2-0.6,0-1.5,0.4-1.8c0.3-0.2,0.7-0.3,1-0.4l0.3-0.1l0-0.3l0.3-0.3l-1-0.2c-2.1,0-2.7,0.6-2.7,1.4     L617.5,688.7z M571.9,688.4l0.1-0.2c0.1-0.1,0.2-0.2,0.3-0.3l0.4-0.3l-0.7-0.2c-0.6-0.1-1.2-0.2-1.3,0.2     c-0.1,0.2,0.4,0.4,0.9,0.6L571.9,688.4z M77,687.6L77,687.6c0-0.4,0.2-0.8,0-1c-0.1-0.1-0.2-0.1-0.3-0.2l-0.2,0l-0.1,0.5l0.2,0.2     L77,687.6z M90.2,686.8l2.1-4c1.8-2.5,4.7-4.4,4.6-5.6l0-0.1l-0.5-0.1c-0.6-0.2-0.8,0.7-1,0.9c-0.5,0.7-1.3,1.2-2.1,1.7L92,681     l0.2,0.2c0.1,0.3-0.1,0.7-0.7,1c-0.9,0.6-2.5,0.5-3.4,1c-1,0.5,0.9,1.5,1.9,3L90.2,686.8z M77,683.4l0.5-0.4     c0.2-0.2,0.3-0.4,0.4-0.6c0.1-0.3,0.1-0.6,0.1-0.9l0-0.3l-0.4,0.1c-0.2,0.1-0.3,0.4-0.4,0.7L77,683.4z M71.3,681.1l0.2-1.2     c0-0.6,0-1.2-0.1-1.8c-0.2-1.1-1.7,0.2-2.2,0.4c-0.3,0.1-0.5,0.2-0.7,0.2l-0.3,0l0.8,0.7c0.7,0.5,1.4,1.1,2.1,1.5L71.3,681.1z      M80.3,679.9L80.3,679.9c0.6-1.5,1.6-3.6-0.9-3.6c-1.7,0-2.4,1.5-3.8,1.9l-0.5,0.1l0.4,0.4c0.6,0.7,3.6-0.5,4.7,1L80.3,679.9z      M630.7,678.7l0.1-0.2c0.6-1.1-0.4-2.2,0.5-3c0.3-0.3,5.1-0.2,2.7-2.6c-0.5-0.4-1.4,0.5-1.8,0c-0.1-0.1-0.2-0.3-0.2-0.5l0-0.1     l-0.4,0.1c-0.3,0.1-0.6,0.2-0.9,0.4l-1.2,1.2l0,0.3c-0.2,1-1.4,1.5-0.6,3.3c0.4,0.8,0.8,1,1.2,1L630.7,678.7z M122.1,674.5     l0.3-0.6c0.7-0.7,1.2-1.7,1.6-2.6l0.8-1.3l-2.6-1.7c-0.8-0.6-1.7-1.2-2.7-1.6c-2.1-0.7-2.5,2.2-3.2,0.4c-0.4-0.9-0.9-3.4-1.6-4.1     c-0.7-0.6-2,1.2-3.1,1.4l-0.4,0l0.2,0.7l0.3,0.9l0.3,0.4c0.9,1.8,2.3,0.5,4.1,1.2c1.6,0.6,4.2,3.4,3.6,5     c-0.1,0.4,0.7,0.8,1.6,1.3L122.1,674.5z M658.4,673l0.6-0.5l1.3-0.3l0.1-0.1c0.8-0.7,1.6-1.5,2.6-2.2l0.3-0.2l-2.9,1.3     c-0.5,0.3-1,0.7-1.4,1.1l-0.6,0.7L658.4,673z M657.5,658l0.4-0.2c0.5-0.4,1-0.9,1.4-1.4c1-1.3,1.9-3.7,3.3-4.6     c1.6-1.1,4.3-0.3,6.5-0.3l1.1-0.2l0.7-1.1c1.1-1.9-0.4-3.9,1.3-5.3c0.6-0.5,9.1-0.4,5.1-4.6c-0.7-0.8-2.5,0.8-3.2,0     c-0.2-0.3-0.3-0.6-0.2-0.9l0-0.1l-0.7,0.2c-0.5,0.2-1,0.4-1.7,0.7c-2.6,1.3-3.2,4.4-5.9,4.9c-4.7,0.9-0.6-1-4.3-2.6     c-3.5-1.5-6.6-1.1-10.5-0.6l-1.2,0.3l0.3,1.2c-1.1-0.3-1.4-0.8-0.4-1.1l0.2,0l-0.1-0.4l0-0.2l-1,0.6c-0.3,0.6,0.2,1.5,1.2,3.5     c1.4,2.8,2.7,1,4.5,2.3c1.4,1,0.7,2.5,1.4,4.1c0.8,1.9-1.3,2.3-0.8,3.8c0.1,0.4,0.6,0.8,1.2,1.2L657.5,658z M649.6,639.8l0.1-0.7     l0.5-1.2l-0.8,0c-0.7-0.4-0.6-1.7-1.3-1.7c-0.9,0.1-1.9,1.2-3,0.5l-0.8-0.7l-0.2,0.1c-0.7,0.4-1.2,0.8-1.1,1     c0.6,1.3,3.6,2,6.1,2.6L649.6,639.8z M715.8,633.5l0.3-1.4c0.1-0.8,0.3-1.6,0.8-2c0.6-0.4,1.2-0.6,1.8-0.7l1.4-0.2l-0.4-0.5     c-1.1-1.1-3.1-5.3-3.6-2.9c-0.3,1.3-2.3,1.5-4.9,1.4l-1-0.1l0.3,0.5c0.7,0.9,1.8,2,3,3.2L715.8,633.5z M725,621.3l0.1-0.7     c0-0.5,0-1-0.1-1.4l-0.6-0.9l0.1,0.2c0,0.5-0.1,0.9-0.4,1.4l-0.2,0.3l0,0.1L725,621.3z"/>
</svg>