<svg xmlns="http://www.w3.org/2000/svg" xmlns:xlink="http://www.w3.org/1999/xlink" version="1.1" x="0px" y="0px" viewBox="0 0 800 800" style="enable-background:new 0 0 800 800;" xml:space="preserve">
<style>
.st19{fill:#2d4975;}
</style>
<path xmlns="http://www.w3.org/2000/svg" class="st19" d="M811.1,731.9v-78.5c-1.1,0.1-2.1,0.3-3,0.5c-10.6,2.4-25.9,7.7-37.8,6.7c-12-0.9-30.6-9.5-44.5-9.1     c-13.9,0.5-46.5-8.6-59.8-8.6c-13.3,0-27.2-10-39.2-15.3c-12-5.3-55.5-65.7-69.5-65.1c-6.8,0.3-19.4,22.6-32.5,32.5     c-14,10.6-9.1-14.2-43.7,23.4c-10.5,11.4-28.9,10.3-43.5,13.7c-14.6,3.4-37.2,1-51.8-3.8c-14.6-4.8-28.6-1.9-38.5,0     c-10,1.9-25.2,14.4-37.2,14.4c-12,0-29.9-0.4-43.2,4.8c-13.3,5.3-27.2,6.7-36.5,6.7c-9.3,0-37.2,1-53.8,8.2     c-16.6,7.2-63.1,14.4-73,8.2c-10-6.2-20.6-27.3-29.3-27.7c-8.6-0.5-18.6-1.9-21.9-7.2c-3.3-5.3-15.3-18.2-33.9-6.7     c-3.4,2.1-6.8,4.1-10.1,6v96.6H811.1z"/>
</svg>