<svg xmlns="http://www.w3.org/2000/svg" xmlns:xlink="http://www.w3.org/1999/xlink" version="1.1" x="0px" y="0px" viewBox="0 0 800 800" style="enable-background:new 0 0 800 800;" xml:space="preserve">
<style>
.st17{fill:#FFFFFF;}
.st24{opacity:1;fill:#f6d794;}
</style>
<path xmlns="http://www.w3.org/2000/svg" class="st17" d="M210.9,521.6c-5.6-0.6-17.7-1.4-22.1,0.8c-2.9,1.5-5.4,5-7.9,5.4c-2.4,0.4-15.9-1.2-10.2,2.7     c-13.5-9.2-11.3,10.8-18.7,10.8c-4.7,0-37.8,0.2-34.5,4.6c-2.9,0-33.6,7-33.4,7.3c-4.1,1.4-8.4,1.5-13.6,1.5     c-8.4,0,8.6,1.9,12.4,2.3c15.4,1.5,31.5,1.5,48.1,1.5c61.9,0,124.9-1.5,184.4-1.5c-9.8-3.3-20.6-3.5-30-7.7     c-8.4-3.8-3.7-8.7-13-10.8c-13.7-3.1-16.1,4.2-25.5,4.2c-2.5,0-6.2-0.1-6.2-1.9c0-6-8.9-13.3-15.8-15.4c-6.9-2.1-7.4,5.9-7.4,1.9     C217.7,523.6,214.7,524.2,210.9,521.6z"/>
<path xmlns="http://www.w3.org/2000/svg" class="st17" d="M631.4,535c-10.1-16.8-28.4-2.4-34,7c-3.3-5.5-8.6-5.8-14.9-5.8c-5.7,0-3.6,9.1-9.8,7     c-14-4.7-20.6,1.5-33.1,1.5c-11.5,0-23.6,0.4-35.4,0.4c-14.9,0,21.3,2.7,27,3.5c28.6,4,62.2,0.8,91.8,0.8     c12.7,0,24.7-0.4,37.3-0.4c1.9,0,11.7,0.7,12.1-0.4c3.5-8.6-15.4-3.9-16.8-4.3c-0.1,0-14.5-14.3-14.5-7.4     C641.2,534.5,635.1,538.1,631.4,535z"/>
</svg>