<svg xmlns="http://www.w3.org/2000/svg" xmlns:xlink="http://www.w3.org/1999/xlink" version="1.1" x="0px" y="0px" viewBox="0 0 800 800" style="enable-background:new 0 0 800 800;" xml:space="preserve">
<style>
.st18{fill:#775983;}
</style>
<path xmlns="http://www.w3.org/2000/svg" class="st18" d="M-17.5,694.6v-78.5c1.1,0.1,2.1,0.3,3,0.5c10.6,2.4,25.9,7.7,37.8,6.7c12-0.9,30.6-9.5,44.5-9.1     c13.9,0.5,46.5-8.6,59.8-8.6c13.3,0,27.2-10,39.2-15.3c12-5.3,20.5-35,38.4-35c17.9,0,14.7,20.1,28.7,20.7     c14,0.6,27.8-32.9,43-32.9c13.7,0,40.9,27.5,53.3,36.8c12.4,9.3,22.9,0.9,37.5,4.2c14.6,3.4,29.1,25.1,43.7,20.3     c14.6-4.8,28.7-8,38.6-6.1c10,1.9,21.5,7,33.5,7c12,0,29.9-0.4,43.2,4.8c13.3,5.3,27.2,6.7,36.5,6.7c9.3,0,37.2,1,53.8,8.2     c16.6,7.2,63.1,14.4,73,8.2c10-6.2,20.6-27.3,29.3-27.7c8.6-0.5,18.6-1.9,21.9-7.2c3.3-5.3,15.3-18.2,33.9-6.7     c3.4,2.1,6.8,4.1,10.1,6v96.6H-17.5z"/>
</svg>